<?xml version="1.0" standalone="no"?>
<!DOCTYPE svg PUBLIC "-//W3C//DTD SVG 20010904//EN"
 "http://www.w3.org/TR/2001/REC-SVG-20010904/DTD/svg10.dtd">
<svg version="1.0" xmlns="http://www.w3.org/2000/svg"
 width="512.000000pt" height="512.000000pt" viewBox="0 0 512.000000 512.000000"
 preserveAspectRatio="xMidYMid meet">
<metadata>
Created by potrace 1.11, written by Peter Selinger 2001-2013
</metadata>
<g transform="translate(0.000000,512.000000) scale(0.100000,-0.100000)"
fill="#000000" stroke="none">
<path d="M1840 4789 c-166 -31 -320 -115 -440 -241 -42 -44 -51 -48 -125 -63
-124 -24 -251 -91 -340 -179 -85 -83 -126 -152 -151 -249 -12 -46 -25 -74 -39
-82 -11 -6 -46 -27 -78 -46 -82 -48 -185 -154 -229 -236 -76 -141 -97 -311
-58 -464 l19 -72 -54 -60 c-238 -263 -288 -661 -124 -982 l40 -80 -20 -45
c-28 -61 -39 -118 -39 -198 1 -114 48 -229 129 -314 l38 -40 -6 -101 c-15
-292 138 -522 405 -609 72 -23 83 -25 157 -27 50 -1 51 -2 95 -62 57 -79 127
-140 209 -183 104 -54 162 -68 296 -71 89 -2 136 -8 180 -23 90 -31 149 -39
286 -37 92 0 138 6 179 19 141 48 247 157 291 297 18 59 19 123 19 1908 0
1626 -2 1854 -15 1906 -35 133 -123 238 -255 303 -73 36 -78 37 -200 38 -69 1
-145 -2 -170 -7z"/>
<path d="M3000 4787 c-148 -42 -270 -152 -332 -298 l-23 -54 -3 -1839 c-1
-1217 1 -1858 8 -1895 21 -115 97 -228 201 -298 99 -66 140 -77 309 -80 142
-3 162 -1 245 23 74 22 113 27 220 28 112 2 141 6 208 29 132 46 244 130 317
238 37 53 40 55 87 58 181 9 386 129 478 281 63 104 79 167 79 321 l1 135 43
49 c24 27 60 83 80 125 36 73 37 78 36 185 0 96 -3 118 -27 176 l-27 66 39 79
c87 174 118 390 81 562 -33 149 -93 276 -187 396 -35 43 -63 85 -63 92 0 7 7
42 15 78 10 42 14 96 11 158 -10 225 -135 430 -329 537 l-76 42 -11 57 c-28
143 -151 299 -297 375 -69 36 -201 77 -249 77 -14 0 -44 23 -85 65 -94 98
-237 183 -374 222 -70 20 -317 27 -375 10z"/>
</g>
</svg>
